<svg xmlns="http://www.w3.org/2000/svg" width="760" height="260" viewBox="0 0 760 260" font-family="DejaVu Sans" font-size="14">
  <style>
    .box { fill:#f5f9ff; stroke:#0044AA; stroke-width:2; rx:6; ry:6; }
    .title { font-weight:bold; }
    .arrow { stroke:#0044AA; stroke-width:2; marker-end:url(#arrowhead); }
    .caption { fill:#333; }
  </style>
  <defs>
    <marker id="arrowhead" markerWidth="10" markerHeight="7" refX="9" refY="3.5" orient="auto">
      <polygon points="0 0, 10 3.5, 0 7" fill="#0044AA" />
    </marker>
  </defs>
  <rect class="box" x="20" y="40" width="180" height="70" />
  <text x="30" y="65" class="title">Reserves (R)</text>
  <text x="30" y="90" class="caption">Collateral pool</text>

  <rect class="box" x="280" y="40" width="180" height="70" />
  <text x="290" y="65" class="title">Issuance (I)</text>
  <text x="290" y="90" class="caption">Atomic 7→10 step</text>

  <rect class="box" x="540" y="40" width="180" height="70" />
  <text x="550" y="65" class="title">Circulation (E)</text>
  <text x="550" y="90" class="caption">Expanded units</text>

  <line class="arrow" x1="200" y1="75" x2="280" y2="75" />
  <line class="arrow" x1="460" y1="75" x2="540" y2="75" />

  <rect class="box" x="280" y="160" width="180" height="70" />
  <text x="290" y="185" class="title">Liquidity Recycling</text>
  <text x="290" y="210" class="caption">Li99 Bond / Fees</text>

  <line class="arrow" x1="620" y1="110" x2="370" y2="160" />
  <line class="arrow" x1="370" y1="160" x2="110" y2="110" />

  <text x="40" y="20" class="caption">Coverage maintained: R ≥ target</text>
  <text x="300" y="20" class="caption">Formula: E = I × (10/7) × (1 - f)^n</text>
  <text x="560" y="20" class="caption">Stability instruments engaged</text>
</svg>